<?xml version="1.0" encoding="iso-8859-1"?>
<!-- Generator: Adobe Illustrator 16.0.0, SVG Export Plug-In . SVG Version: 6.00 Build 0)  -->
<!DOCTYPE svg PUBLIC "-//W3C//DTD SVG 1.1//EN" "http://www.w3.org/Graphics/SVG/1.1/DTD/svg11.dtd">
<svg version="1.1" id="Capa_1" xmlns="http://www.w3.org/2000/svg" xmlns:xlink="http://www.w3.org/1999/xlink" x="0px" y="0px"
	 width="612px" height="612px" viewBox="0 0 612 612" style="enable-background:new 0 0 612 612;" xml:space="preserve">
<g>
	<g>
		<rect x="181.688" y="133.875" width="133.875" height="19.125"/>
		<rect x="181.688" y="76.5" width="133.875" height="19.125"/>
		<path d="M372.938,0H162.562c-21.038,0-38.25,17.212-38.25,38.25v439.875c0,21.037,17.212,38.25,38.25,38.25h153V612l47.812-47.812
			L411.188,612v-95.625h38.25c21.037,0,38.25-17.213,38.25-38.25v-344.25L372.938,0z M372.938,28.688l89.888,105.188h-70.763
			c-9.562,0-19.125-9.562-19.125-19.125V28.688z M392.062,566.1l-28.688-28.688L334.688,566.1v-74.587
			c9.562,3.825,19.125,5.737,28.688,5.737s19.125-1.912,28.688-5.737V566.1z M363.375,478.125
			c-26.775,0-47.812-21.037-47.812-47.812S336.6,382.5,363.375,382.5s47.812,21.037,47.812,47.812S390.15,478.125,363.375,478.125z
			 M468.562,478.125c0,9.562-7.65,19.125-19.125,19.125h-38.25v-21.037c11.475-11.476,19.125-28.688,19.125-45.9
			c0-36.338-30.6-66.938-66.938-66.938s-66.938,30.6-66.938,66.938c0,19.125,7.65,34.425,19.125,45.9v21.037h-153
			c-9.562,0-19.125-7.65-19.125-19.125V38.25c0-9.562,7.65-19.125,19.125-19.125h191.25v95.625c0,21.038,17.213,38.25,38.25,38.25
			h76.5V478.125z"/>
		<rect x="181.688" y="191.25" width="248.625" height="19.125"/>
		<rect x="181.688" y="306" width="248.625" height="19.125"/>
		<rect x="181.688" y="248.625" width="248.625" height="19.125"/>
	</g>
</g>
<g>
</g>
<g>
</g>
<g>
</g>
<g>
</g>
<g>
</g>
<g>
</g>
<g>
</g>
<g>
</g>
<g>
</g>
<g>
</g>
<g>
</g>
<g>
</g>
<g>
</g>
<g>
</g>
<g>
</g>
</svg>
